# xmcd CD database file
#
# Track frame offsets:
#	150
#	14566
#	28328
#	43405
#	65094
#	79742
#	96687
#	117124
#	131316
#	151261
#	174774
#	187720
#	203752
#	236775
#
# Disc length: 3183 seconds
#
# Revision: 0
# Processed by: cddbd v1.5.2PL0 Copyright (c) Steve Scherf et al.
# Submitted via: CDex 1.71
#
DISCID=bc0c6d0e
DTITLE=Sarah Brendel - Under The Fire
DYEAR=2003
DGENRE=Blues
TTITLE0=Commodity
TTITLE1=Catherine Wheel
TTITLE2=Breaking In
TTITLE3=Babel Towers
TTITLE4=Fire
TTITLE5=King Love
TTITLE6=No More
TTITLE7=Pardon Me
TTITLE8=Confused
TTITLE9=Slowly
TTITLE10=The Reverse
TTITLE11=Be With Me
TTITLE12=Take My Hart
TTITLE13=Christival TV Spot
EXTD=YEAR: 2003
EXTT0=
EXTT1=
EXTT2=
EXTT3=
EXTT4=
EXTT5=
EXTT6=
EXTT7=
EXTT8=
EXTT9=
EXTT10=
EXTT11=
EXTT12=
EXTT13=
PLAYORDER=
